# xmcd
#
# Track frame offsets:
#	150
#	15657
#	31747
#	48920
#	65052
#	85072
#	101335
#	116760
#	134540
#	149150
#	168007
#	183507
#	201160
#
# Disc length: 2875 seconds
#
# Revision: 1
# Processed by: cddbd v1.5.2PL0 Copyright (c) Steve Scherf et al.
# Submitted via: audiograbber 1.83.01
#
DISCID=b30b390d
DTITLE=Sula Miranda - Parada Obrigatória
DYEAR=2001
DGENRE=Country
TTITLE0=Parada obrigatória
TTITLE1=Mudança de estação
TTITLE2=Um bem-te-vi que te viu
TTITLE3=Quero me casar contigo
TTITLE4=Na linha do horizonte
TTITLE5=Dia "D"
TTITLE6=Pensamento voa
TTITLE7=Caminhoneiro do amor
TTITLE8=Estradas do interior
TTITLE9=Caminho do meu coração
TTITLE10=Luar, luar
TTITLE11=Coisinha estúpida
TTITLE12=Loucura
EXTD=
EXTT0=
EXTT1=
EXTT2=
EXTT3=
EXTT4=
EXTT5=
EXTT6=
EXTT7=
EXTT8=
EXTT9=
EXTT10=
EXTT11=
EXTT12=
PLAYORDER=
